<svg width="167" height="100" viewBox="0 0 167 100" fill="none" xmlns="http://www.w3.org/2000/svg">
<path d="M32.8195 62.1311C31.5319 60.8804 30.5125 59.3736 29.8251 57.7049C29.1377 56.0363 28.7971 54.2416 28.8245 52.4333C28.8294 50.9148 29.0688 49.4064 29.5339 47.9632V47.9253C30.0408 46.3817 30.8398 44.9533 31.8861 43.7204L29.6833 42.243C30.583 41.5839 31.2921 40.6922 31.737 39.6607C32.1818 38.6292 32.3461 37.4956 32.2127 36.3779C32.0792 35.2602 31.653 34.1991 30.9784 33.3052C30.3037 32.4113 29.4052 31.7171 28.3765 31.295C27.6671 30.992 22.5893 47.9632 22.5893 47.9632C22.5893 48.342 22.552 48.8723 22.552 49.4784C22.552 51.1453 26.6216 50.918 26.3976 52.3954C26.0616 54.6304 25.9869 56.2972 24.1201 61.6386C22.8506 65.2374 14.3379 61.6386 13.7405 63.4191C13.3377 64.7311 13.1362 66.0982 13.1431 67.4725C13.1431 67.624 13.4791 70.0106 26.0616 70.0106C38.644 70.0106 38.9801 67.624 38.9801 67.4725C38.9889 66.7875 38.9389 66.103 38.8307 65.4268C36.5877 64.8534 34.5214 63.7205 32.8195 62.1311V62.1311Z" fill="#4E7838"/>
<path d="M25.8375 61.3357C26.5469 58.1157 27.1443 54.6685 27.555 52.585C28.0404 50.009 24.1574 49.5544 22.5892 49.3271C22.5146 51.5243 21.9172 55.0852 16.7647 59.1007C15.3083 60.2289 14.2375 61.7924 13.7031 63.5708C15.0846 64.2526 16.9514 64.6693 19.8263 64.6693C21.6558 64.6693 25.0908 64.8966 25.8375 61.3357ZM28.5631 47.9255C28.911 47.0728 29.0887 46.1586 29.0858 45.2358L26.5469 42.2431C29.2352 41.0688 30.878 38.8716 30.878 36.2956C30.8786 35.3252 30.6561 34.3679 30.2284 33.4999C29.8006 32.6319 29.1793 31.877 28.4138 31.2952C27.6703 30.9723 26.8703 30.8048 26.0616 30.8027C24.4088 30.8057 22.8246 31.4732 21.6559 32.659C20.4872 33.8448 19.8293 35.4521 19.8263 37.129C19.8209 38.1285 20.0521 39.1146 20.5004 40.0045C20.9487 40.8944 21.601 41.6622 22.4026 42.2431L17.9222 45.2358C17.9089 46.1817 18.1545 47.1127 18.6316 47.9255H28.5631Z" fill="#6C9D41"/>
<path d="M25.7256 32.0907C29.3099 32.6589 24.0828 36.8639 22.4026 36.6744C20.8345 36.485 22.3653 31.5604 25.7256 32.0907V32.0907Z" fill="#94BB48"/>
<path d="M65.9745 53.723V62.6632C65.9707 62.8127 65.9105 62.955 65.8063 63.0607C65.7021 63.1665 65.5618 63.2276 65.4145 63.2314H61.7928C61.6455 63.2276 61.5052 63.1665 61.401 63.0607C61.2968 62.955 61.2365 62.8127 61.2328 62.6632V54.4806C61.2328 51.791 60.486 50.5409 58.6192 50.5409C56.4163 50.5409 55.3709 51.9804 55.3709 55.011V62.6632C55.3671 62.8127 55.3069 62.955 55.2027 63.0607C55.0985 63.1665 54.9582 63.2276 54.8109 63.2314H51.1892C51.0419 63.2276 50.9016 63.1665 50.7974 63.0607C50.6931 62.955 50.6329 62.8127 50.6292 62.6632V41.828C50.6329 41.6785 50.6931 41.5362 50.7974 41.4304C50.9016 41.3247 51.0419 41.2636 51.1892 41.2598H54.8109C54.9582 41.2636 55.0985 41.3247 55.2027 41.4304C55.3069 41.5362 55.3671 41.6785 55.3709 41.828V48.0028C56.603 46.7906 57.7605 46.3739 59.8513 46.3739C63.7343 46.3739 65.9745 48.6468 65.9745 53.723V53.723ZM76.0927 46.3739C71.0896 46.3739 68.028 49.9727 68.028 54.9352C68.028 59.2538 70.4922 63.4966 76.4288 63.4966C78.9677 63.4966 81.4692 63.1178 83.0374 62.2465C83.1498 62.1796 83.2345 62.0737 83.2757 61.9483C83.3169 61.8228 83.3118 61.6865 83.2614 61.5646L82.104 59.0644C82.0745 59 82.0321 58.9425 81.9795 58.8956C81.9269 58.8488 81.8653 58.8135 81.7986 58.7922C81.7319 58.7708 81.6615 58.7637 81.5919 58.7715C81.5224 58.7792 81.4551 58.8015 81.3946 58.8371C79.7517 59.7084 78.8183 59.8978 76.6901 59.8978C74.5619 59.8978 72.8445 58.0794 72.6951 56.3369H83.4481C83.5607 56.3373 83.6693 56.2946 83.7524 56.2174C83.8354 56.1401 83.8867 56.034 83.8961 55.9201C83.9256 55.6307 83.9381 55.3398 83.9334 55.0489C83.9334 49.6317 80.9092 46.3739 76.0927 46.3739V46.3739ZM72.6204 53.4957C72.7698 51.3743 74.0019 50.0484 76.1301 50.0484C78.2583 50.0484 79.3784 51.4122 79.5277 53.4957H72.6204ZM100.847 61.5267L102.004 59.0265C102.034 58.9621 102.076 58.9046 102.129 58.8578C102.181 58.8109 102.243 58.7757 102.31 58.7543C102.376 58.7329 102.447 58.7258 102.516 58.7336C102.586 58.7413 102.653 58.7637 102.714 58.7992C104.17 59.5947 105.701 59.8599 107.493 59.8599C109.696 59.8599 110.517 59.2538 110.517 58.3446C110.517 55.6171 100.623 58.4204 100.623 51.7531C100.623 48.6089 103.423 46.3739 108.202 46.3739C110.173 46.3725 112.12 46.7987 113.915 47.624C113.976 47.6507 114.031 47.6904 114.077 47.7404C114.122 47.7904 114.156 47.8495 114.178 47.9139C114.199 47.9783 114.206 48.0465 114.2 48.1141C114.193 48.1816 114.172 48.247 114.139 48.3058L112.981 50.7682C112.919 50.8962 112.811 50.9951 112.679 51.0444C112.547 51.0938 112.401 51.0898 112.272 51.0334C111.001 50.3701 109.594 50.0198 108.165 50.0105C106.037 50.0105 105.103 50.6924 105.103 51.5637C105.103 54.4049 114.998 51.6395 114.998 58.1931C114.998 61.2994 112.16 63.4966 107.269 63.4966C104.73 63.4966 102.602 63.1178 101.034 62.2465C100.918 62.1734 100.834 62.0581 100.799 61.9243C100.764 61.7904 100.782 61.6482 100.847 61.5267V61.5267ZM115.259 62.1707C115.257 62.0011 115.289 61.833 115.352 61.676C115.416 61.5191 115.509 61.3765 115.627 61.2566C115.746 61.1367 115.886 61.0419 116.041 60.9777C116.195 60.9135 116.361 60.8812 116.528 60.8827C116.693 60.8821 116.857 60.9153 117.009 60.9803C117.161 61.0453 117.299 61.1408 117.414 61.261C117.529 61.3812 117.619 61.5238 117.679 61.6801C117.738 61.8364 117.766 62.0032 117.76 62.1707C117.766 62.3401 117.739 62.509 117.68 62.6677C117.621 62.8263 117.532 62.9715 117.417 63.0949C117.303 63.2182 117.165 63.3172 117.013 63.3862C116.86 63.4552 116.695 63.4927 116.528 63.4966C116.187 63.4906 115.862 63.3478 115.624 63.0993C115.386 62.8509 115.255 62.517 115.259 62.1707V62.1707ZM127.207 57.9658C127.207 54.7458 129.409 52.4729 132.396 52.4729C135.383 52.4729 137.586 54.7458 137.586 57.9658C137.586 61.1858 135.383 63.4966 132.396 63.4966C129.409 63.4966 127.207 61.1858 127.207 57.9658ZM135.794 57.9658C135.794 55.655 134.375 54.1776 132.434 54.1776C130.492 54.1776 129.073 55.655 129.073 57.9658C129.073 60.2766 130.53 61.754 132.434 61.754C134.338 61.754 135.794 60.2766 135.794 57.9658ZM152.969 57.1703V63.0041C152.969 63.1046 152.93 63.2009 152.86 63.272C152.79 63.343 152.695 63.3829 152.596 63.3829H151.438C151.339 63.3829 151.244 63.343 151.174 63.272C151.104 63.2009 151.065 63.1046 151.065 63.0041V57.3976C151.065 55.2762 150.467 54.2533 148.75 54.2533C147.144 54.2533 146.92 55.5034 146.92 57.8521V63.0041C146.92 63.1046 146.881 63.2009 146.811 63.272C146.741 63.343 146.646 63.3829 146.547 63.3829H145.39C145.291 63.3829 145.196 63.343 145.126 63.272C145.056 63.2009 145.016 63.1046 145.016 63.0041V57.3976C145.016 55.2762 144.494 54.2533 142.813 54.2533C141.245 54.2533 140.872 55.5034 140.872 57.8521V63.0041C140.872 63.1046 140.832 63.2009 140.762 63.272C140.692 63.343 140.597 63.3829 140.498 63.3829H139.341C139.242 63.3829 139.147 63.343 139.077 63.272C139.007 63.2009 138.968 63.1046 138.968 63.0041V52.9653C138.968 52.8649 139.007 52.7685 139.077 52.6975C139.147 52.6264 139.242 52.5865 139.341 52.5865H140.424C140.523 52.5865 140.618 52.6264 140.688 52.6975C140.758 52.7685 140.797 52.8649 140.797 52.9653V53.5336C140.947 53.3063 141.507 52.4729 143.112 52.4729C144.531 52.4729 145.427 52.9653 146.099 54.026C146.099 54.026 146.771 52.4729 149.086 52.4729C151.662 52.4729 152.969 53.9882 152.969 57.1703V57.1703Z" fill="white"/>
<path d="M123.473 61.7905C121.382 61.7905 120.113 60.3131 120.113 58.0023C120.113 55.6915 121.382 54.2141 123.473 54.2141C123.928 54.2003 124.381 54.2806 124.805 54.4499C125.228 54.6192 125.614 54.8741 125.937 55.1991C125.972 55.2333 126.017 55.256 126.064 55.2643C126.112 55.2727 126.162 55.2662 126.206 55.2458C126.25 55.2254 126.287 55.192 126.313 55.1499C126.338 55.1078 126.35 55.0589 126.348 55.0096V53.4944C126.349 53.4163 126.329 53.3393 126.289 53.2723C126.25 53.2054 126.192 53.151 126.124 53.1155C125.308 52.6769 124.396 52.4553 123.473 52.4715C120.187 52.4715 118.134 54.7445 118.134 57.9644C118.134 61.1844 120.187 63.4952 123.473 63.4952C124.396 63.5115 125.308 63.2899 126.124 62.8512C126.192 62.8157 126.25 62.7614 126.289 62.6944C126.329 62.6275 126.349 62.5505 126.348 62.4724V60.9571C126.35 60.9079 126.338 60.859 126.313 60.8169C126.287 60.7748 126.25 60.7414 126.206 60.721C126.162 60.7006 126.112 60.6941 126.064 60.7024C126.017 60.7108 125.972 60.7335 125.937 60.7677C125.619 61.1029 125.236 61.3669 124.811 61.5431C124.387 61.7192 123.931 61.8035 123.473 61.7905Z" fill="white"/>
<path d="M90.0566 51.5251C90.0566 50.6538 90.99 49.934 93.1929 49.934C94.6629 49.9379 96.1102 50.3018 97.4119 50.9947C97.4744 51.0311 97.5441 51.0532 97.6159 51.0593C97.6877 51.0655 97.76 51.0555 97.8277 51.0303C97.8953 51.005 97.9567 50.9649 98.0074 50.913C98.0581 50.861 98.097 50.7984 98.1213 50.7295L99.2788 48.1914C99.3293 48.0637 99.3346 47.9221 99.2937 47.7909C99.2528 47.6596 99.1684 47.5468 99.0547 47.4717C97.216 46.6159 95.2158 46.1764 93.1929 46.1837C88.2645 46.1837 85.3895 48.4566 85.3895 51.7145C85.3895 58.5333 95.5824 55.6921 95.5824 58.4954C95.5824 59.4424 94.7237 60.0485 92.4835 60.0485C90.6167 60.0485 89.0485 59.7834 87.5551 58.9878C87.4915 58.9522 87.4216 58.9297 87.3494 58.9219C87.2771 58.914 87.2041 58.9209 87.1345 58.942C87.065 58.9632 87.0003 58.9983 86.9443 59.0452C86.8882 59.0921 86.842 59.1499 86.8083 59.2151L85.6135 61.7911C85.563 61.9189 85.5578 62.0604 85.5986 62.1917C85.6395 62.3229 85.7239 62.4357 85.8376 62.5109C87.4804 63.42 89.6459 63.7989 92.2595 63.7989C97.2999 63.7989 100.212 61.5259 100.212 58.3817C100.212 51.6387 90.0566 54.4799 90.0566 51.5251V51.5251Z" fill="white"/>
<path d="M65.9745 53.7215V62.6617C65.9707 62.8112 65.9105 62.9535 65.8063 63.0592C65.702 63.165 65.5618 63.2261 65.4144 63.2299H61.7928C61.6454 63.2261 61.5052 63.165 61.4009 63.0592C61.2967 62.9535 61.2365 62.8112 61.2327 62.6617V54.4791C61.2327 51.7895 60.486 50.5394 58.6192 50.5394C56.4163 50.5394 55.3709 51.9789 55.3709 55.0095V62.6617C55.3671 62.8112 55.3069 62.9535 55.2027 63.0592C55.0984 63.165 54.9582 63.2261 54.8108 63.2299H51.1892C51.0418 63.2261 50.9016 63.165 50.7973 63.0592C50.6931 62.9535 50.6329 62.8112 50.6291 62.6617V41.8265C50.6329 41.677 50.6931 41.5347 50.7973 41.4289C50.9016 41.3232 51.0418 41.2621 51.1892 41.2583H54.8108C54.9582 41.2621 55.0984 41.3232 55.2027 41.4289C55.3069 41.5347 55.3671 41.677 55.3709 41.8265V48.0013C56.603 46.789 57.7604 46.3723 59.8513 46.3723C63.7343 46.3723 65.9745 48.6453 65.9745 53.7215V53.7215ZM42.9004 59.3659C38.9054 59.3659 36.0678 56.5248 36.0678 52.4335C36.0678 48.3422 38.9054 45.5011 42.9004 45.5011C44.4901 45.4886 46.0345 46.0377 47.2688 47.0542C47.3567 47.1298 47.4638 47.1788 47.5779 47.1954C47.6919 47.212 47.8083 47.1956 47.9136 47.1481C48.0189 47.1007 48.1088 47.024 48.1731 46.927C48.2374 46.8299 48.2733 46.7165 48.2769 46.5996V43.0008C48.2779 42.8596 48.2399 42.721 48.1674 42.6005C48.0948 42.48 47.9905 42.3825 47.8662 42.319C46.2274 41.6045 44.4601 41.2433 42.6764 41.2583C36.0305 41.2583 31.1021 45.9178 31.1021 52.4335C31.1021 58.9492 36.0305 63.6087 42.6391 63.6087C44.4352 63.6274 46.2154 63.2661 47.8662 62.548C47.9889 62.4928 48.0932 62.4025 48.1661 62.2881C48.239 62.1737 48.2776 62.0402 48.2769 61.904V58.2673C48.2764 58.1491 48.2422 58.0336 48.1785 57.9346C48.1147 57.8356 48.0242 57.7574 47.9177 57.7094C47.8112 57.6613 47.6933 57.6456 47.5782 57.6639C47.4631 57.6822 47.3557 57.7339 47.2688 57.8127C46.0345 58.8293 44.4901 59.3784 42.9004 59.3659V59.3659ZM76.0927 46.3723C71.0896 46.3723 68.028 49.9711 68.028 54.9337C68.028 59.2523 70.4922 63.4951 76.4287 63.4951C78.9676 63.4951 81.4692 63.1162 83.0373 62.245C83.1498 62.1781 83.2345 62.0722 83.2757 61.9467C83.3169 61.8213 83.3118 61.685 83.2614 61.5631L82.1039 59.0629C82.0744 58.9985 82.0321 58.941 81.9795 58.8941C81.9269 58.8473 81.8653 58.812 81.7986 58.7906C81.7318 58.7693 81.6614 58.7622 81.5919 58.7699C81.5223 58.7777 81.4551 58.8 81.3945 58.8356C79.7517 59.7069 78.8183 59.8963 76.6901 59.8963C74.5619 59.8963 72.8444 58.0779 72.6951 56.3353H83.448C83.5607 56.3357 83.6693 56.2931 83.7523 56.2159C83.8354 56.1386 83.8867 56.0325 83.8961 55.9186C83.9256 55.6292 83.9381 55.3383 83.9334 55.0474C83.9334 49.6302 80.9091 46.3723 76.0927 46.3723V46.3723ZM72.6204 53.4942C72.7698 51.3728 74.0019 50.0469 76.1301 50.0469C78.2582 50.0469 79.3783 51.4107 79.5277 53.4942H72.6204ZM100.847 61.5252L102.004 59.025C102.034 58.9606 102.076 58.9031 102.129 58.8563C102.181 58.8094 102.243 58.7741 102.31 58.7528C102.376 58.7314 102.447 58.7243 102.516 58.7321C102.586 58.7398 102.653 58.7621 102.714 58.7977C104.17 59.5932 105.701 59.8584 107.493 59.8584C109.696 59.8584 110.517 59.2523 110.517 58.3431C110.517 55.6156 100.623 58.4189 100.623 51.7516C100.623 48.6074 103.423 46.3723 108.202 46.3723C110.172 46.371 112.12 46.7972 113.915 47.6225C113.976 47.6492 114.031 47.6889 114.077 47.7389C114.122 47.7889 114.156 47.848 114.178 47.9124C114.199 47.9768 114.206 48.045 114.199 48.1126C114.193 48.1801 114.172 48.2455 114.139 48.3043L112.981 50.7667C112.919 50.8947 112.811 50.9936 112.679 51.0429C112.547 51.0923 112.401 51.0883 112.272 51.0318C111.001 50.3686 109.594 50.0183 108.165 50.009C106.037 50.009 105.103 50.6909 105.103 51.5622C105.103 54.4034 114.998 51.638 114.998 58.1916C114.998 61.2979 112.16 63.4951 107.269 63.4951C104.73 63.4951 102.602 63.1162 101.034 62.245C100.918 62.1719 100.834 62.0566 100.799 61.9228C100.764 61.7889 100.782 61.6467 100.847 61.5252V61.5252ZM115.259 62.1692C115.257 61.9996 115.289 61.8315 115.352 61.6745C115.416 61.5176 115.509 61.375 115.627 61.2551C115.746 61.1352 115.886 61.0403 116.041 60.9762C116.195 60.912 116.361 60.8797 116.528 60.8812C116.693 60.8806 116.857 60.9138 117.009 60.9788C117.161 61.0438 117.299 61.1392 117.414 61.2595C117.529 61.3797 117.619 61.5222 117.679 61.6786C117.738 61.8349 117.766 62.0017 117.76 62.1692C117.766 62.3386 117.739 62.5075 117.68 62.6662C117.621 62.8248 117.532 62.97 117.417 63.0934C117.303 63.2167 117.165 63.3157 117.013 63.3847C116.86 63.4536 116.695 63.4912 116.528 63.4951C116.187 63.4891 115.862 63.3463 115.624 63.0978C115.386 62.8494 115.255 62.5155 115.259 62.1692V62.1692ZM127.207 57.9643C127.207 54.7443 129.409 52.4714 132.396 52.4714C135.383 52.4714 137.586 54.7443 137.586 57.9643C137.586 61.1843 135.383 63.4951 132.396 63.4951C129.409 63.4951 127.207 61.1843 127.207 57.9643ZM135.794 57.9643C135.794 55.6535 134.375 54.1761 132.434 54.1761C130.492 54.1761 129.073 55.6535 129.073 57.9643C129.073 60.2751 130.53 61.7525 132.434 61.7525C134.338 61.7525 135.794 60.2751 135.794 57.9643ZM152.969 57.1688V63.0026C152.969 63.1031 152.93 63.1994 152.86 63.2705C152.79 63.3415 152.695 63.3814 152.596 63.3814H151.438C151.339 63.3814 151.244 63.3415 151.174 63.2705C151.104 63.1994 151.065 63.1031 151.065 63.0026V57.396C151.065 55.2746 150.467 54.2518 148.75 54.2518C147.144 54.2518 146.92 55.5019 146.92 57.8506V63.0026C146.92 63.1031 146.881 63.1994 146.811 63.2705C146.741 63.3415 146.646 63.3814 146.547 63.3814H145.39C145.291 63.3814 145.196 63.3415 145.126 63.2705C145.056 63.1994 145.016 63.1031 145.016 63.0026V57.396C145.016 55.2746 144.493 54.2518 142.813 54.2518C141.245 54.2518 140.872 55.5019 140.872 57.8506V63.0026C140.872 63.1031 140.832 63.1994 140.762 63.2705C140.692 63.3415 140.597 63.3814 140.498 63.3814H139.341C139.242 63.3814 139.147 63.3415 139.077 63.2705C139.007 63.1994 138.968 63.1031 138.968 63.0026V52.9638C138.968 52.8634 139.007 52.767 139.077 52.696C139.147 52.6249 139.242 52.585 139.341 52.585H140.424C140.523 52.585 140.618 52.6249 140.688 52.696C140.758 52.767 140.797 52.8634 140.797 52.9638V53.5321C140.946 53.3048 141.507 52.4714 143.112 52.4714C144.531 52.4714 145.427 52.9638 146.099 54.0245C146.099 54.0245 146.771 52.4714 149.086 52.4714C151.662 52.4714 152.969 53.9867 152.969 57.1688V57.1688Z" fill="black"/>
<path d="M123.473 61.7905C121.382 61.7905 120.113 60.3131 120.113 58.0023C120.113 55.6915 121.382 54.2141 123.473 54.2141C123.928 54.2003 124.381 54.2806 124.805 54.4499C125.228 54.6192 125.614 54.8741 125.937 55.1991C125.972 55.2333 126.017 55.256 126.064 55.2643C126.112 55.2727 126.162 55.2662 126.206 55.2458C126.25 55.2254 126.287 55.192 126.313 55.1499C126.338 55.1078 126.35 55.0589 126.348 55.0096V53.4944C126.349 53.4163 126.329 53.3393 126.289 53.2723C126.25 53.2054 126.192 53.151 126.124 53.1155C125.308 52.6769 124.396 52.4553 123.473 52.4715C120.187 52.4715 118.134 54.7445 118.134 57.9644C118.134 61.1844 120.187 63.4952 123.473 63.4952C124.396 63.5115 125.308 63.2899 126.124 62.8512C126.192 62.8157 126.25 62.7614 126.289 62.6944C126.329 62.6275 126.349 62.5505 126.348 62.4724V60.9571C126.35 60.9079 126.338 60.859 126.313 60.8169C126.287 60.7748 126.25 60.7414 126.206 60.721C126.162 60.7006 126.112 60.6941 126.064 60.7024C126.017 60.7108 125.972 60.7335 125.937 60.7677C125.619 61.1029 125.236 61.3669 124.811 61.5431C124.387 61.7192 123.931 61.8035 123.473 61.7905Z" fill="black"/>
<path d="M90.0566 51.5251C90.0566 50.6538 90.99 49.934 93.1929 49.934C94.6629 49.9379 96.1102 50.3018 97.4119 50.9947C97.4744 51.0311 97.5441 51.0532 97.6159 51.0593C97.6877 51.0655 97.76 51.0555 97.8277 51.0303C97.8953 51.005 97.9567 50.9649 98.0074 50.913C98.0581 50.861 98.097 50.7984 98.1213 50.7295L99.2788 48.1914C99.3293 48.0637 99.3346 47.9221 99.2937 47.7909C99.2528 47.6596 99.1684 47.5468 99.0547 47.4717C97.216 46.6159 95.2158 46.1764 93.1929 46.1837C88.2645 46.1837 85.3895 48.4566 85.3895 51.7145C85.3895 58.5333 95.5824 55.6921 95.5824 58.4954C95.5824 59.4424 94.7237 60.0485 92.4835 60.0485C90.6167 60.0485 89.0485 59.7834 87.5551 58.9878C87.4915 58.9522 87.4216 58.9297 87.3494 58.9219C87.2771 58.914 87.2041 58.9209 87.1345 58.942C87.065 58.9632 87.0003 58.9983 86.9443 59.0452C86.8882 59.0921 86.842 59.1499 86.8083 59.2151L85.6135 61.7911C85.563 61.9189 85.5578 62.0604 85.5986 62.1917C85.6395 62.3229 85.7239 62.4357 85.8376 62.5109C87.4804 63.42 89.6459 63.7989 92.2595 63.7989C97.2999 63.7989 100.212 61.5259 100.212 58.3817C100.212 51.6387 90.0566 54.4799 90.0566 51.5251V51.5251Z" fill="black"/>
</svg>
