<svg class="svg-icon" style="width: 1em; height: 1em;vertical-align: middle;fill: currentColor;overflow: hidden;" viewBox="0 0 1024 1024" version="1.1" xmlns="http://www.w3.org/2000/svg"><path d="M739.738 478.729 593.621 333.188c0 0-31.868-30.281-67.864 0.164-24.386 24.387-65.37 65.371-86.293 86.295l-21.19-20.356c-16.101-15.29-42.207-15.29-58.309 0l-76.484 73.475 0.114 0.162c-5.871 3.601-9.8 10.058-9.8 17.451 0 11.311 9.17 20.48 20.48 20.48 4.861 0 9.319-1.701 12.831-4.53l0.388 0.552c0.399-0.642 0.769-1.298 1.171-1.937 0.853-0.843 1.623-1.767 2.318-2.748l63.558-61.377c8.051-7.645 21.103-7.645 29.153 0l63.838 61.647c0.622 0.903 1.32 1.747 2.075 2.538 0.387 0.621 0.747 1.255 1.134 1.877l0.408-0.415c3.574 3.042 8.198 4.888 13.259 4.888 11.31 0 20.48-9.169 20.48-20.48 0-6.932-3.453-13.048-8.724-16.754l-27.389-26.311 71.089-70.671c0 0 17.644-16.884 38.301-1.338 20.027 20.28 129.706 131.081 129.706 131.081l0.755-0.667c3.611 3.189 8.341 5.14 13.537 5.14 11.311 0 20.48-9.169 20.48-20.48 0-4.288-1.323-8.265-3.576-11.555L739.738 478.729z"  /><path d="M389.12 322.56m-30.72 0a30.72 30.72 0 1 0 61.44 0 30.72 30.72 0 1 0-61.44 0Z"  /><path d="M829.44 229.469c0-27.763-22.471-50.269-50.19-50.269L244.75 179.2c-27.72 0-50.19 22.507-50.19 50.269L194.56 588.8l634.88 0L829.44 229.469zM788.48 547.84 235.52 547.84 235.52 245.459c0-13.973 11.273-25.299 25.18-25.299l502.6 0c13.907 0 25.18 11.327 25.18 25.299L788.48 547.84z"  /><path d="M834.56 619.52 189.44 619.52c-8.483 0-15.36 6.877-15.36 15.36l0 10.24c0 8.483 6.877 15.36 15.36 15.36l291.84 0 0 168.96c0 8.483 6.877 15.36 15.36 15.36l30.72 0c8.483 0 15.36-6.877 15.36-15.36L542.72 660.48l291.84 0c8.483 0 15.36-6.877 15.36-15.36l0-10.24C849.92 626.397 843.043 619.52 834.56 619.52z"  /></svg>