<svg class="svg-icon" style="width: 1em; height: 1em;vertical-align: middle;fill: currentColor;overflow: hidden;" viewBox="0 0 1024 1024" version="1.1" xmlns="http://www.w3.org/2000/svg"><path d="M880.878348 443.468161l-358.464161 0 0 148.420331 206.335369 0c-10.314926 50.603515-38.397518 89.506547-78.580706 114.823142-34.676777 21.844517-78.337159 33.598212-127.753639 33.598212-100.911294 0-185.943946-65.13037-215.776392-155.685805l-0.122797-0.314155c-7.324826-22.330588-11.417027-46.167482-11.417027-70.996984 0-24.950252 4.14439-48.874127 11.539824-71.309092 29.832446-90.555435 114.865097-155.685805 215.776392-155.685805 54.208623 0 103.167684 19.206434 141.634788 50.637284l111.911836-111.751177c-68.194148-59.367109-155.62543-96.037287-253.547647-96.037287-152.021346 0-282.678104 86.940095-345.240999 213.971279-25.234731 51.229778-39.449477 108.955504-39.449477 170.174797 0 61.169151 14.20042 118.858038 39.397289 170.054047l0.053212 0.104377c62.562894 127.048581 193.220676 213.989699 345.240999 213.989699 93.831039 0 183.412286-33.316803 250.644527-95.741551 70.626547-65.549925 116.561739-163.190733 116.561739-288.406572C889.61943 490.6129 886.124839 466.170209 880.878348 443.468161z"  /></svg>