<svg class="svg-icon" style="width: 1em; height: 1em;vertical-align: middle;fill: currentColor;overflow: hidden;" viewBox="0 0 1024 1024" version="1.1" xmlns="http://www.w3.org/2000/svg"><path d="M536.8 858.9l-427.4 4.7c-39.8 0.4-72.6-31.6-73-71.4l-5.3-478c-0.1-10.2 8.1-18.5 18.2-18.6s18.5 8.1 18.6 18.2l5.3 478c0.2 19.5 16.3 35.2 35.8 35l427.4-4.7c10.2-0.1 18.5 8.1 18.6 18.2 0.2 10.1-8 18.4-18.2 18.6zM771.5 345.5c-10.2 0.1-18.5-8.1-18.6-18.2l-1.7-157.1c-0.2-19.5-16.3-35.2-35.7-35l-614 6.8c-19.5 0.2-35.2 16.3-35 35.7l0.8 72.7c0.1 10.2-8.1 18.5-18.2 18.6s-18.5-8.1-18.6-18.2l-0.8-72.7c-0.4-39.8 31.6-72.6 71.4-73l614-6.8c39.8-0.4 72.6 31.6 73 71.4l1.7 157.1c0.1 10.2-8.1 18.6-18.3 18.7z"  /><path d="M627.7 307.1L184.3 312c-10.2 0.1-18.5-8.1-18.6-18.2s8.1-18.5 18.2-18.6l443.4-4.9c10.2-0.1 18.5 8.1 18.6 18.2 0.2 10.1-8 18.5-18.2 18.6zM317 471.8l-130.9 1.5c-10.2 0.1-18.5-8.1-18.6-18.2s8.1-18.5 18.2-18.6l130.9-1.5c10.2-0.1 18.5 8.1 18.6 18.2s-8 18.5-18.2 18.6zM371.4 632.5l-183.6 2c-10.2 0.1-18.5-8.1-18.6-18.2s8.1-18.5 18.2-18.6l183.6-2c10.2-0.1 18.5 8.1 18.6 18.2 0.2 10.2-8 18.5-18.2 18.6zM480.5 558.5c-5 0.1-10-1.9-13.6-5.8l-89.1-94.9c-7-7.4-6.6-19.1 0.8-26.1 7.4-7 19.1-6.6 26.1 0.8l89.1 94.9c7 7.4 6.6 19.1-0.8 26.1-3.5 3.3-8 5-12.5 5zM775.1 661.8c-75.3 0.8-137.2-59.7-138-135s59.7-137.2 135-138c75.3-0.8 137.2 59.7 138 135s-59.8 137.1-135 138z m-2.7-236.2c-54.9 0.6-99.1 45.8-98.5 100.7s45.8 99.2 100.7 98.5c54.9-0.6 99.2-45.8 98.5-100.8s-45.7-99-100.7-98.4z"  /><path d="M944 921.4l-297 3.3c-14.9 0.2-28.5-6.6-37.3-18.5-8.9-11.9-11.4-26.9-7-41.1l0.8-2.5 33.3-50.4c-27.9-31.7-107.9-125.6-131-185.2-7.2-18.6 0-38.2 17.6-47.7 17.5-9.4 38.4-4.6 49.9 11.5 35.8 50.3 133.8 163.7 270 130.8 8.9-2.3 89.9-21.6 110 25.1 0.9 2.2 20.1 48.9 38.5 109.3 4.7 15.4 1.9 31.7-7.6 44.7-9.5 13-24.1 20.5-40.2 20.7zM637.5 878c-0.3 2.9 0.9 5 1.8 6.2 1 1.4 3.3 3.7 7.4 3.6l297-3.3c4.3 0 8.3-2.1 10.9-5.6 2.6-3.5 3.3-7.9 2.1-12.1-17.8-58.7-37-105.3-37.2-105.8-4.9-11.5-42.4-9.9-67.1-3.7-158.3 38.2-268.7-88.8-308.9-145.2-0.7-0.9-0.9-0.9-1.3-0.8-1.1 0.2-2 1-2.1 1.3 0 0 0 0.3 0.3 1 25.1 64.7 132.4 183.3 133.5 184.5l9.6 10.6-46 69.3z"  /></svg>