<svg class="svg-icon" style="width: 1em;height: 1em;vertical-align: middle;fill: currentColor;overflow: hidden;" viewBox="0 0 1024 1024" version="1.1" xmlns="http://www.w3.org/2000/svg"><path d="M739.84 673.216a239.84 239.84 0 0 0-325.984-328.096l47.744 47.776 105.792 105.76-90.496 90.528-105.92-105.92-47.744-47.712a236.8 236.8 0 0 0-25.216 65.28 241.312 241.312 0 0 0-6.048 52.928 239.744 239.744 0 0 0 359.488 207.968l188.48 230.72a82.464 82.464 0 0 0 59.424 30.496c1.344 0.064 2.656 0.096 4 0.096a72.224 72.224 0 0 0 51.712-21.152l24.992-25.024a72.576 72.576 0 0 0 21.056-55.68 82.56 82.56 0 0 0-30.464-59.424z m-83.424 4.992a175.52 175.52 0 0 1-299.904-118.88l93.888 93.888a37.312 37.312 0 0 0 52.864 0.064l128.32-128.288a37.504 37.504 0 0 0-0.064-52.704L537.6 378.4a175.424 175.424 0 0 1 118.784 299.84z m278.4 253.44l-24.992 24.96a9.792 9.792 0 0 1-7.264 2.4 18.624 18.624 0 0 1-13.024-7.04L708.16 729.92l222.016 181.344a18.72 18.72 0 0 1 7.04 13.088 9.472 9.472 0 0 1-2.4 7.232z" fill="#575869" /><path d="M1007.296 331.52l-207.36-141.92V55.68h-64v90.144L531.456 5.952a31.072 31.072 0 0 0-14.88-4.992 447.104 447.104 0 0 0-9.216 0 31.104 31.104 0 0 0-14.88 4.992L16.704 331.488a32 32 0 1 0 36.128 52.8l45.792-31.328v638.208a32 32 0 0 0 32 32l0.48-0.096 0.448 0.096h500.48v-64H162.624V309.184L512 70.144l347.2 237.536v285.952h64v-242.176l48 32.864a32 32 0 1 0 36.096-52.8z" fill="#575869" /></svg>